<?xml version="1.0" encoding="UTF-8"?>
<svg xmlns="http://www.w3.org/2000/svg" width="512" height="512" viewBox="0 0 512 512">
  <title>Safari pinned tab - magnifier with bar chart</title>
  <g fill="#000000">
    <!-- lens -->
    <path d="M232 84c81.9 0 148 66.1 148 148s-66.1 148-148 148S84 313.9 84 232 150.1 84 232 84zm0 48c-55.5 0-100 44.5-100 100s44.5 100 100 100 100-44.5 100-100-44.5-100-100-100z"/>
    <!-- handle -->
    <path d="M332.6 332.6c9.4-9.4 24.6-9.4 34 0l83.4 83.4c9.4 9.4 9.4 24.6 0 34s-24.6 9.4-34 0l-83.4-83.4c-9.4-9.4-9.4-24.6 0-34z"/>
    <!-- bars + baseline -->
    <path d="M172 286h120c8.8 0 16 7.2 16 16s-7.2 16-16 16H172c-8.8 0-16-7.2-16-16s7.2-16 16-16z"/>
    <path d="M186 234c0-8.8 7.2-16 16-16h4c8.8 0 16 7.2 16 16v52c0 8.8-7.2 16-16 16h-4c-8.8 0-16-7.2-16-16v-52z"/>
    <path d="M228 206c0-8.8 7.2-16 16-16h4c8.8 0 16 7.2 16 16v80c0 8.8-7.2 16-16 16h-4c-8.8 0-16-7.2-16-16v-80z"/>
    <path d="M270 220c0-8.8 7.2-16 16-16h4c8.8 0 16 7.2 16 16v66c0 8.8-7.2 16-16 16h-4c-8.8 0-16-7.2-16-16v-66z"/>
  </g>
</svg>
